<?xml version="1.0" encoding="utf-8"?>
<svg version="1.2" xmlns="http://www.w3.org/2000/svg" viewBox="0 0 3354 714" width="3354" height="714">
  <style>
		.s0 { fill: #000000 } 
		.s1 { fill: #34e0a1 } 
	</style>
  <g>
    <path class="s0" d="m3334.37 476.64c-10.4 0-18.84 8.45-18.84 18.85 0 10.4 8.44 18.85 18.84 18.85 10.4 0 18.85-8.45 18.85-18.85 0-10.4-8.45-18.85-18.85-18.85zm-70.21-190.76v-45.59h-69.9v271.22h69.9v-162.63c0-29.45 18.89-43.91 48.34-43.91h38.25v-64.68h-32.67c-25.59 0-47.78 13.35-53.92 45.59zm70.21 225.47c-8.76 0-15.86-7.13-15.86-15.86 0-8.77 7.14-15.86 15.86-15.86 8.77 0 15.9 7.13 15.9 15.86 0 8.73-7.13 15.86-15.9 15.86zm6.14-19.09c0-3.43-2.43-5.46-6.02-5.46h-6.02v17.18h2.95v-6.22h3.23l3.11 6.22h3.19l-3.43-6.86c1.83-0.83 2.99-2.51 2.99-4.86zm-2277.28-206.38v-45.59h-69.9v271.22h69.9v-162.63c0-29.45 18.89-43.91 48.33-43.91h38.26v-64.68h-32.68c-25.58 0-47.82 13.35-53.91 45.59zm152.06-152.86c-23.91 0-42.24 18.89-42.24 42.8 0 23.35 18.33 42.24 42.24 42.24 23.91 0 42.24-18.89 42.24-42.24 0-23.91-18.33-42.8-42.24-42.8zm-34.87 378.49h69.74v-271.22h-69.74zm401.93-135.61c0 77.43-62.77 140.2-140.19 140.2-31.25 0-59.58-10.25-82.29-27.54v102.57h-69.74v-350.83h69.74v22.95c22.71-17.3 51.04-27.54 82.29-27.54 77.42 0 140.19 62.77 140.19 140.19zm-70.18 0c0-42.04-34.11-76.15-76.15-76.15-42.04 0-76.15 34.11-76.15 76.15 0 42.05 34.11 76.16 76.15 76.16 42.04 0 76.15-34.07 76.15-76.16zm1282.24-23.79l-40.68-11.15c-26.78-6.98-37.18-15.19-37.18-29.33 0-13.79 14.66-23.44 35.62-23.44 19.97 0 35.63 13.08 35.63 29.81v1.56h64.28v-1.56c0-49.21-40.13-82.29-99.91-82.29-59.17 0-102.17 33.04-102.17 78.58 0 35.43 23.47 62.13 64.43 73.21l38.98 10.64c29.6 8.21 40.6 17.29 40.6 33.59 0 17.18-15.9 28.73-39.57 28.73-24.67 0-41.28-15.62-41.28-38.81v-1.55h-68.22v1.55c0 55.63 44.79 94.52 108.95 94.52 61.8 0 106.67-37.97 106.67-90.26 0-25.66-11.48-59.21-66.15-73.8zm-964.68-111.81h69.74v271.21h-69.74v-22.95c-22.71 17.29-51.04 27.53-82.29 27.53-77.42 0-140.19-62.76-140.19-140.19 0-77.43 62.77-140.19 140.19-140.19 31.25 0 59.58 10.24 82.29 27.54zm0 135.61c0-42.09-34.11-76.16-76.15-76.16-42.04 0-76.15 34.11-76.15 76.16 0 42.04 34.11 76.15 76.15 76.15 42.08 0 76.15-34.07 76.15-76.15zm321.55-232.13h69.74v367.77h-69.74v-22.95c-22.72 17.29-51.05 27.54-82.29 27.54-77.43 0-140.19-62.77-140.19-140.2 0-77.42 62.76-140.19 140.19-140.19 31.24 0 59.57 10.24 82.29 27.54zm0 232.12c0-42.04-34.11-76.15-76.15-76.15-42.04 0-76.16 34.11-76.16 76.15 0 42.04 34.08 76.16 76.16 76.16 42.04 0 76.15-34.08 76.15-76.16zm393.51 135.61h69.74v-271.22h-69.74zm34.87-378.49c-23.91 0-42.24 18.89-42.24 42.8 0 23.35 18.33 42.24 42.24 42.24 23.91 0 42.24-18.89 42.24-42.24 0-23.91-18.33-42.8-42.24-42.8zm582.32 242.89c0 77.42-62.76 140.19-140.19 140.19-77.42 0-140.19-62.77-140.19-140.19 0-77.43 62.76-140.2 140.19-140.2 77.43 0 140.19 62.77 140.19 140.2zm-64.03 0c0-42.05-34.12-76.16-76.16-76.16-42.04 0-76.15 34.11-76.15 76.16 0 42.04 34.07 76.15 76.15 76.15 42.04 0 76.16-34.07 76.16-76.15zm-2070.43-232.13h-267.51v62.21h99.03v305.52h69.49v-305.52h99.03v-62.21zm1352.86 293.45l-62.05-196.93h-73.24l93.05 271.21h83.92l93.6-271.21h-73.24zm954 57.86h-2.91v-5.7h2.91c1.99 0 3.19 1 3.19 2.83-0.01 1.87-1.24 2.87-3.19 2.87z" style="fill: rgb(255, 255, 255);"/>
    <path fill-rule="evenodd" class="s1" d="m356.65 713.31c-197.22 0-356.65-159.43-356.65-356.66 0-197.23 159.43-356.65 356.65-356.65 197.23 0 356.66 159.42 356.66 356.65 0 197.23-159.43 356.66-356.66 356.66z"/>
    <path class="s0" d="m576.94 287.08l43.04-46.83h-95.44c-47.78-32.64-105.48-51.64-167.89-51.64-62.32 0-119.86 19.05-167.56 51.64h-95.68l43.03 46.83c-26.38 24.06-42.91 58.73-42.91 97.23 0 72.64 58.9 131.54 131.54 131.54 34.51 0 65.95-13.31 89.42-35.07l42.16 45.91 42.17-45.87c23.47 21.76 54.87 35.03 89.38 35.03 72.64 0 131.62-58.9 131.62-131.54 0.04-38.54-16.5-73.2-42.88-97.23zm-351.83 186.25c-49.17 0-89.02-39.85-89.02-89.02 0-49.18 39.85-89.03 89.02-89.03 49.17 0 89.02 39.85 89.02 89.03 0 49.17-39.85 89.02-89.02 89.02zm131.58-91.61c0-58.58-42.6-108.87-98.82-130.35 30.4-12.71 63.76-19.77 98.78-19.77 35.03 0 68.42 7.06 98.83 19.77-56.19 21.52-98.79 71.77-98.79 130.35zm131.55 91.61c-49.18 0-89.03-39.85-89.03-89.02 0-49.18 39.85-89.03 89.03-89.03 49.17 0 89.02 39.85 89.02 89.03 0 49.17-39.85 89.02-89.02 89.02zm0-135.73c-25.79 0-46.67 20.89-46.67 46.67 0 25.78 20.88 46.66 46.67 46.66 25.78 0 46.66-20.88 46.66-46.66 0-25.74-20.88-46.67-46.66-46.67zm-216.47 46.71c0 25.78-20.88 46.66-46.66 46.66-25.78 0-46.66-20.88-46.66-46.66 0-25.78 20.88-46.67 46.66-46.67 25.78-0.04 46.66 20.89 46.66 46.67z"/>
  </g>
</svg>